<?xml version="1.0"?>
<svg xmlns:rdf="http://www.w3.org/1999/02/22-rdf-syntax-ns#" xmlns="http://www.w3.org/2000/svg" xmlns:cc="http://creativecommons.org/ns#" xmlns:xlink="http://www.w3.org/1999/xlink" xmlns:dc="http://purl.org/dc/elements/1.1/" xmlns:svg="http://www.w3.org/2000/svg" id="svg1" viewBox="0 0 553.7 211.81" version="1.0">
  <defs id="defs3">
    <linearGradient id="linearGradient7464">
      <stop id="stop7465" stop-color="#c80000" offset="0"/>
      <stop id="stop7466" stop-color="#c80000" stop-opacity="0" offset="1"/>
    </linearGradient>
    <linearGradient id="linearGradient5061">
      <stop id="stop5062" stop-color="#fff" offset="0"/>
      <stop id="stop5063" stop-color="#fff" stop-opacity=".88288" offset="1"/>
    </linearGradient>
    <linearGradient id="linearGradient29525" y2="724.07" gradientUnits="userSpaceOnUse" y1="718.1" gradientTransform="scale(2.0693 .48326)" x2="497.11" x1="544.8">
      <stop id="stop2492" stop-color="#fff" offset="0"/>
      <stop id="stop2493" stop-color="#fff" stop-opacity=".78378" offset="1"/>
    </linearGradient>
    <linearGradient id="linearGradient29526" y2="405.65" xlink:href="#linearGradient5061" gradientUnits="userSpaceOnUse" y1="405.65" gradientTransform="matrix(1.1401 0 0 .87709 -.85525 -.42763)" x2="868.91" x1="808.65"/>
    <linearGradient id="linearGradient29527" y2="678.49" xlink:href="#linearGradient7464" gradientUnits="userSpaceOnUse" y1="678.49" gradientTransform="scale(1.4235 .70247)" x2="826.89" x1="754.2"/>
    <linearGradient id="linearGradient29528" y2="508.81" gradientUnits="userSpaceOnUse" y1="508.45" gradientTransform="scale(1.2562 .79607)" x2="960.72" x1="939.15">
      <stop id="stop26127" stop-color="#fde2e2" offset="0"/>
      <stop id="stop26128" stop-color="#fde2e2" stop-opacity="0" offset="1"/>
    </linearGradient>
    <linearGradient id="linearGradient29532" y2="449.52" xlink:href="#linearGradient5061" gradientUnits="userSpaceOnUse" y1="416.07" gradientTransform="scale(1.1401 .87709)" x2="793.42" x1="793.42"/>
    <linearGradient id="linearGradient29534" y2="434.66" gradientUnits="userSpaceOnUse" y1="360.76" gradientTransform="scale(1.1231 .89041)" x2="804.87" x1="805.2">
      <stop id="stop23622" stop-color="#e5e5e5" offset="0"/>
      <stop id="stop23623" stop-color="#e5e5e5" stop-opacity="0" offset="1"/>
    </linearGradient>
    <linearGradient id="linearGradient29535" y2="405.65" xlink:href="#linearGradient5061" gradientUnits="userSpaceOnUse" y1="405.65" gradientTransform="matrix(1.1401 0 0 .87709 100.4 -171.99)" x2="868.91" x1="808.65"/>
    <linearGradient id="linearGradient29537" y2="678.49" xlink:href="#linearGradient7464" gradientUnits="userSpaceOnUse" y1="678.49" gradientTransform="matrix(1.3782 0 0 .41590 -1413.3 727.28)" x2="826.89" x1="754.2"/>
    <linearGradient id="linearGradient29539" y2="678.49" xlink:href="#linearGradient7464" gradientUnits="userSpaceOnUse" y1="678.49" gradientTransform="matrix(.95347 0 0 .28772 -1125.8 639.51)" x2="826.89" x1="754.2"/>
  </defs>
  <g id="g29413" transform="translate(-816.16 -310.74)">
    <path id="path28665" d="m825.87 496.09c2.47 7.05 8.24 18.17 20.76 22.01h30.47c3.49-1.27 6.99-2.54 10.48-3.81 1.27-1.9 2.54-3.81 3.81-5.71v-57.14l-19.05-35.24-22.18-5.52-24.48 18.85-4.77 23.81 1.91 23.81 3.05 18.94z" stroke="#000" stroke-width=".25pt" fill-rule="evenodd"/>
    <path id="path28663" d="m1009.8 508.25l5.7 6.74 7.1 5.72 9.1 1.68 40.4-3.03 8.7-4.37 2.4-4.38 2-4.04 4.7-22.56-1.3-35.35-26-61.62-65.96 7.74-5.73 64.65 11.49 21.89 0.3 16.49 7.1 10.44z" stroke="#000" stroke-width=".25pt" fill-rule="evenodd"/>
    <path id="path1260" d="m1061.3 506.89l63.4-1.92 28.8-2.89h9.6l31.8-5.76 38.4-5.76 38.4-3.85 39.4-3.84h48l10.6-1.92v-4.81l-2.9-38.43-11.5-7.68-9.6-10.57-11.5-16.33-7.7-14.41-1.9-1.93-8.7-4.8-7.7-5.76-8.6-1.92-36.5-6.73-15.4-2.88-10.6-1.92-6.7-0.96-2.9-3.85-7.7-2.88-8.6-3.84-47.4-22.12-19.9-8.63c-10.4-4.26-19-6.82-30.7-7.68l-38.4-1.92h-53.8l-34.63 1.92c-11.52 0.99-19.97 2.18-32.71 4.8-7.76 2.56-11.64 3.5-20.37 7.68-10.78 5.04-20.69 10.23-31.47 17.3l-18.25 15.37-7.69 8.65-14.41 16.33-5.76 1.92-22.1 13.45-0.96 4.81-1.92 8.64-1.92 8.65c-1.28 1.92-2.56 3.84-3.84 5.77-1.61 4.16-3.21 8.32-4.81 12.49l-1.92 13.45-1.92 12.49 0.96 18.25v9.61l9.59 5.49-1.92-18.94c-1.43-9.38 1.23-19 1.95-31.71 1.3-14.59 5.21-20.38 10.55-25.94 2.41-1.9 5.29-2.14 8.65 0l5.76 4.82c5.97 7.2 7.19 13.21 8.64 20.17 3.11 14.2 2.64 19.61 2.9 29.77v25.94l-0.97 6.73 4.81-0.96h142.16l-5.7-17.29-2.9-17.3-1.94-17.29 0.96-21.14 3.88-15.37 6.7-14.41 6.7-7.69 9.6-2.88 8.7 2.88 8.6 4.81 6.7 9.6 6.8 14.42 2.8 13.45 2.9 13.45 1 14.41v16.33l-1 7.69-1.9 15.37z" fill-rule="evenodd" stroke="#000" stroke-width=".25pt" fill="#ef0000"/>
    <path id="path1261" d="m863.86 385.11l13.07-13.07 17.69-17.69 17.68-14.61 12.31-6.92 8.46-3.84 12.3-3.85 9.23-2.3 10.76-0.77c2.57 0.51 8.32 0.88 15.38 6.92l7.69 9.23 8.46 11.53 8.51 13.84 2.3 8.46-0.8 9.53-3.1 1.08-6.14 1.69-69.21 2.31h-16.91l-9.23-0.77-38.45-0.77z" stroke="#000" stroke-width=".25pt" fill-rule="evenodd"/>
    <path id="path1262" d="m1183.8 414.33l-15.4-13.07-5.4-3.07-10.8-3.08-24.6-3.08h-16.1l-10.8 1.54-6.9 1.54-3.1 3.08-0.8 4.61v17.69l10.8-0.77h10.8l6.1-0.77h6.9l59.3-4.62z" stroke="#000" stroke-width=".25pt" fill-rule="evenodd"/>
    <path id="path1263" d="m1305.3 408.18l1.5-18.45 10.8-6.15 10 4.61 8.4 14.61c0.1 1.9-1.4 3.34-3.1 3.85h-8.4l-19.2 1.53z" stroke="#000" stroke-width=".25pt" fill-rule="evenodd"/>
    <path id="path1264" d="m998.43 385.11l-3.85 4.62-2.3 3.07 1.54 4.62-106.12 3.84h-36.15l-9.22 3.08-10.77 1.54 3.08-4.62 25.37-15.38 56.91 2.31 81.51-3.08z" fill-rule="evenodd" display="block" fill="url(#linearGradient29525)"/>
    <path id="path1265" d="m1106.9 421.26l10 1.53-2.4 2.31 2.4 3.85 6.1 5.38 9.2 1.54 110-6.92-110 3.07-5.4-3.07-4.6-3.85v-3.84l-0.7-1.54-14.6 1.54z" fill-rule="evenodd" display="block" fill="#fabbbb"/>
    <path id="path1266" d="m1152.2 462.78l15.4 13.84 5.4 4.62 6.1 1.53h7.7l8.5-0.76 79.2-6.93 52.3-5.38 5.4-1.54 3.8-3.07 3.9-4.62 10-15.38-53.1 4.62-78.4 6.92-66.2 6.15z" stroke="#000" stroke-width=".25pt" fill-rule="evenodd"/>
    <path id="path1268" d="m1067.2 441.98l6.4 21 2-6.98v-2.75l1.4-0.12-1.2 1.48-8.6-12.63z" stroke="#000" stroke-width=".25pt" fill-rule="evenodd"/>
    <path id="path1269" d="m994.55 320l47.35-3.25 39.6-1.29 25.9 0.64 20.8 0.65 18.2 8.44 15.5 6.49 16.3 7.78 11.6 7.79 9.1 4.54 7.8 5.19h-51.9l-45.4 1.94-40.2 4.54-20.2 1.3h-15.5l-7.2-3.89-9-12.33-22.75-28.54z" fill-rule="evenodd" stroke="#000" stroke-width=".25pt" fill="#040001"/>
    <path id="path1271" d="m1190.5 400.44z" stroke="#000" stroke-width=".25pt" fill="none"/>
    <path id="path1272" d="m1194.4 396.55l33.1-3.24 31.1-1.3 19.5-0.65h14.2c0.5 0.51 1 1.23 1.3 1.95 0.7 1.73 0.8 3.39 0.7 5.19-0.9 3.96-1.8 5.84-3.3 7.78-1.2 1.23-2.6 1.66-3.9 1.95l-10.3 0.65-54.5 1.94-13 0.65-8.4-0.65-4.6-4.23-5.5-5.75c-0.5-0.89-1.1-1.35-1-2.99 0.1-0.59 1.5-0.99 4.6-1.3z" stroke="#000" stroke-width=".25pt" fill-rule="evenodd"/>
    <path id="path1273" d="m1285.2 417.31h14.3l7.1 3.24 6.5 2.6h7.1l9.8-1.3 4.5-3.24v-3.89l-1.9-3.25-3.3-3.89-22.7 1.95 0.7 2.59-2.6 3.24h-5.2l-10.4 0.65-3.9 1.3z" fill-rule="evenodd" display="block" fill="#fabbbb"/>
    <path id="path1274" d="m1347.5 438.07l6.5-1.3 1.9-2.59-1.3-2.6-2.6-4.54-6.5-5.19 1.3 5.84v4.54l0.7 5.84z" fill-rule="evenodd" display="block" fill="url(#linearGradient29526)"/>
    <path id="path1275" d="m987.03 379.68l3.64-25.95-7.28-11.67-6.06-6.49-3.03-3.25-5.46-2.59h-6.07l-5.92 0.28-13.95 2.59-8.4 3.12-3.45 8.14-4.3 12.87-2.47 8.75-1.73 9.38-0.28 6.63 32.01 0.79h18.2l14.55-2.6z" fill-rule="evenodd" stroke="#000" stroke-width=".24172pt" fill="#040001"/>
    <path id="path1276" d="m957.62 329.62l-8.83 0.85-8.97 1.82-6.31 1.96-6.59 15.42-4.06 14.86-2.1 10.51-0.42 6.87 1.12-0.14 0.98-8.83 1.68-8.13 2.52-9.81 2.53-6.73 3.08-7.29 1.82-5.47 18.64-5.18 4.91-0.71z" stroke="#000" stroke-width=".25pt" fill="none"/>
    <path id="path1277" d="m927.4 338.5l-5.8 11.78-3.42 10.93-4.44 13.66-1.7 5.46-23.74-0.34-11.09-0.34 8.36-9.05 9.56-9.22 11.1-8.71 7.68-6.15 5.64-3.92 7.85-4.1z" stroke="#000" stroke-width=".25pt" fill-rule="evenodd"/>
    <path id="path1278" d="m998.25 381.53l-17.63 1.69-15.45 0.24-32.6 1.21h-44.19l-18.11-1.21-2.89-0.48 1.69-1.21 15.21 0.48 29.94 1.21h21.01l15.93-0.97 17.39-0.96h12.55s8.45-1.45 9.42-1.45c0.96 0 5.55-0.48 5.55-0.48l2.18 1.93z" stroke="#000" stroke-width=".25pt" fill="none"/>
    <path id="path1279" d="m975.7 459.23l-2.71 1.56-4.85 0.97-64.99 4.65-4.46-0.77-4.27-0.97-3.88-2.33-3.3-3.49s-2.72-2.91-3.1-3.69c-0.39-0.78-2.72-5.43-2.72-5.43l-7.76-14.94-3.88-7.57s5.04 5.44 5.24 6.21c0.19 0.78 4.65 9.51 4.85 10.28 0.19 0.78 4.65 7.57 4.65 7.57l5.63 8.34 5.04 3.3 4.27 1.75 6.4 0.38 4.47-0.19 54.51-4.46h5.04l3.3-0.78 2.52-0.39z" fill-opacity=".48679" fill="#fff" fill-rule="evenodd"/>
    <path id="path1280" d="m887.18 505.53h4.39l-1.65-35.11-2.74 0.54-1.65 7.14v8.23l0.55 9.33v6.03l1.1 3.84z" stroke="#000" stroke-width=".25pt" fill-rule="evenodd"/>
    <path id="path1281" d="m894.86 470.42h5.49l1.65 0.54 0.54 6.59 2.2 27.43-7.68 0.55-2.2-35.11z" stroke="#000" stroke-width=".25pt" fill-rule="evenodd"/>
    <path id="path1283" d="m1332.7 479.74l7.2-1.64 4.9-4.39 3.3-5.49 2.7-7.13 3.3-8.23 2.2-4.94 2.2-2.2 2.8 0.55-1.7 3.29-2.7 6.04-2.8 9.33-3.3 8.23-4.3 4.39-6.1 2.74-7.7-0.55z" fill-opacity=".6" fill="#fff" fill-rule="evenodd"/>
    <path id="path1284" d="m1343.1 479.81l10.2 0.16 6.5-0.47 4.8-0.8 3.5-0.64 0.8-0.96-0.1-4.78-1.3-16.27-0.3-9.25-0.8-4.46v-1.76l-3.2 2.4-2.7 1.75 1.6 2.07-2.3 2.87-2.8 5.74-1.8 5.75-1.1 5.1-2.6 4.78-2.5 3.83-3.1 3.19-2.8 1.75z" fill-rule="evenodd" display="block" fill="url(#linearGradient29527)"/>
    <path id="path1285" d="m1046.6 382.53l-5.7-2.03-8.5-2.4-6.8-2.95-6.6-4.61-6.9-5.54-3.5-5.17-6.4-7.93-5.39-8.13-18.27-19.01 7.2 7.57 5.35 7.38 6.46 9.42 6.65 10.33 3.5 5.17 0.6 2.95 1.6 2.96 2.8 3.32 4 1.84 5.4 2.22 5.2 3.14 2.5 1.29 16.8 0.18z" stroke="#000" stroke-width=".25pt" fill="none"/>
    <path id="path1286" d="m1028.4 382.21l-11.7 0.19-9.4-5.82 0.2-10.13 4.9 7.69 13.1 5.63 2.9 2.44z" stroke="#000" stroke-width=".25pt" fill="none"/>
    <path id="path1290" d="m1176.6 358.42l-26.5 1.64-28.2 2.35-24.9 2.82-23.5 1.87-15.2 1.88-13.4 1.88h-8.4l-3.3-3.52s-1.9-2.11-1-2.11c1 0 12 0.7 12 0.7l19-1.64s16.9-1.18 18.1-1.41c1.2-0.24 17.8-3.05 17.8-3.05l20-0.94 14.8-0.94s14.3 0 15.4-0.23c1.2-0.24 10.6-0.24 13.2-0.24s14.1 0.94 14.1 0.94z" stroke="#000" stroke-width=".25pt" fill="none"/>
    <path id="path1291" d="m1117.5 391.72l-13.2-5.46-13.4-2.96-10.3-3.32-14.3-1.9-12.8-1.54-9.5-1.78s-4.7-1.31-5.3-1.54c-0.5-0.24-2.1-1.66-2.7-1.9s-3.8-4.03-3.8-4.03l0.4 0.35" stroke="#000" stroke-width=".25pt" fill="none"/>
    <path id="path1292" d="m1196.4 358.44c-1.4 0-12 0.25-12 0.25s-9.3 0.22-10.5 0.22-10.7 1.08-10.7 1.08l-21.8 2.16v1.72l16.1-1.72 15-0.82 16.1 0.6 15.7-0.55 18.5-1.26-1.9-1.43-12-0.25h-12.5z" fill="#fff" fill-rule="evenodd"/>
    <path id="path1293" d="m1307.1 407.18c4.6 0.15 10.6-1.57 12.3-7.68 1.4-4.87 6.7-6.41 6.2-11.01l-1-0.59-2.2-1.92-3.2-1.16-1.6-1.17-6.4 3.25-2.3 2.01-1.1 2.33-0.6 4.76v5.34l-0.3 4.17-0.3 1.26 0.5 0.41z" fill-rule="evenodd" stroke="#000" stroke-width=".25pt" fill="#eeeff6"/>
    <path id="path1294" d="m1300.2 446.83l-1.2-18.13-1-1.2-61.3 4.34-10.7 0.15-4.8 0.6-2.4 2.4s0.5 6.74 0.5 7.34 0.7 8.55 0.7 8.55l1.2 3.74 11-0.9 45.2-3.74 16.1-1.5 6.3-0.45 0.4-1.2z" stroke="#000" stroke-width=".25pt" fill="none"/>
    <path id="path1295" d="m876.32 364.63l-35.37 0.4-0.61-5.13v-3.72l-0.9-0.5-3.01-0.3-4.73 0.9-3.72 1.71v5.23l0.2 4.42 2.72 7.54 1.61 1.1 2.91-0.4 3.52-0.9 1.71-1.21v-2.21l7.94-0.2 22-0.4 1.71-1.51 4.02-4.82z" fill-rule="evenodd" stroke="#000" stroke-width=".25pt" fill="#424348"/>
    <path id="path1296" d="m840.3 365.09l0.07 1.75 33.16-0.61s0.46 0.16 0.77-0.23c0.3-0.38 1.37-1.3 1.37-1.3l-2.21-0.07-32.63 0.23-0.53 0.23z" stroke="#000" stroke-width=".25pt" fill="none"/>
    <path id="path1297" d="m838.46 357.34l-2.71 0.19-2.02 0.12-2.9 0.89-2.02 0.25-0.76-0.95 2.84-0.82s2.46-1.01 2.78-1.07c0.31-0.06 1.89-0.25 2.21-0.25h1.7c0.32 0 1.96 0.19 1.96 0.19l0.69 0.56 0.06 0.82-1.83 0.07z" stroke="#000" stroke-width=".25pt" fill="none"/>
    <path id="path1298" d="m1005.6 366.77l-7.98-11.5-9.73-14.59-6.63-8.19-5.53-4.64-7.74-3.32h-7.96l-8.85 0.88-8.63 2.44-6.63 1.77-3.76 1.32-11.28 5.75-8.85 5.75-7.96 5.98-6.41 4.86-9.51 8.85-6.86 6.63-5.53 5.53-4.87 5.53-1.54 1.77 0.88 0.22 16.59-17.03 9.51-9.07 12.16-9.51 9.96-6.85 8.62-4.87 7.3-3.31 9.51-3.1 7.74-1.77 5.97-1.11h6.64l6.41 1.11 5.31 2.87 5.09 4.21 4.2 5.53 4.64 6.63 4.87 7.08 4.64 6.63 3.31 5.75 2 2.88 0.9-1.11z" stroke="#000" stroke-width=".25pt" fill="none"/>
    <path id="path1299" d="m1092.1 396.85c7.1-0.49 10.6 1.21 14.3 3.84 4.4 5.57 8.7 11.15 13.1 16.72l63.2-3.06-16.6-15.3c-12.8-4.38-31.9-8.11-51.4-6.72-10.3 0.72-16.3 1.02-22.6 4.52z" fill-rule="evenodd" stroke="#000" stroke-width=".25pt" fill="#eeeff6"/>
    <path id="path1300" d="m1183.9 413.08c1.4-0.17 2.9 0.25 4.3-0.09 0.5-0.5-0.8-1.42-0.9-2.09-1.8-2.99-3.5-6-5.5-8.8-0.9-1.34-1.8-2.68-2.7-4.04-0.6-1.22 0.9-1.86 1.9-1.55 2.5 0.26 4.4 2.19 6.2 3.82 2.9 2.52 5.9 4.97 8.2 8.02 1.3 1.44 2.5 2.89 3.7 4.35 1.5 0.9 2.9 2.16 4.6 2.5 0.9 0.63 1.4-0.18 0.5-0.73-1-1.96-2.9-3.28-4.5-4.66-4-3.42-7.5-7.35-11.1-11.16-1.9-1.46-3.7-2.95-5.9-3.82-2 0.34-4.2-0.28-5.9 0.96-0.9 0.81-0.2 2.06 0.3 2.88 1 1.8 2.1 3.54 3.2 5.29 0.4 1.08-0.7 2-1.7 1.78-1 0.01-1.9-0.47-2.6-1.06-1.2-0.79-2.3-1.7-3.5-2.4 0.8 0.99 1.7 1.82 2.5 2.75 1.4 1.46 2.4 3.4 4.2 4.48 1.6 1.16 3.2 2.33 4.7 3.57z" fill="url(#linearGradient29528)" fill-rule="evenodd"/>
    <path id="path1301" d="m1205.1 415.1h7.7l8.9 0.17 7.3-0.17 3.5-0.5 4.2-0.66 2.9-0.66-5.4-0.34h-8l-5.8 0.34h-16.2l0.9 1.82z" fill-rule="evenodd" stroke="#f45151" stroke-width=".25pt" fill="#f9abab"/>
    <path id="path1303" d="m1051.1 439.47l-3.9 5.59 5.6-0.88-0.6-2.36-1.1-2.35z" fill-rule="evenodd" stroke="#000" stroke-width=".25pt" fill="#eeeff6"/>
    <path id="path1304" d="m1054 452.41l-2.9 0.29-2.4 2.06-1.2 2.06 0.3 2.05 1.8 1.47v2.36l0.3 2.64-1.2 2.35-1.2 1.47 0.3 2.65 1.8 1.47 2.6 0.29h1.8l0.6-2.94v-1.76l-2.1-1.18-0.3-1.76-0.5-4.7 0.5-2.36 1.8-1.17v-3.53l-1.8-1.47 1.8-0.29z" fill-rule="evenodd" stroke="#000" stroke-width=".25pt" fill="#eeeff6"/>
    <path id="path1311" d="m1038 515.34l5.6-5.64 6.5-9.03 4.2-14.39 1.5-11.57v-9.87l-0.9-11.85-2.3-14.68-3.3-13.26-4.3-5.92-5.6-5.36-7.3-1.13-6.3-0.28-7.6 5.36-5.6 8.46-3.1 7.06-2.8 11.28-1.7 10.16v10.16l1.1 16.93 1.4 8.74 3.4 9.88 4.8 8.74 5.3 4.52 2.6 2.54 4.2 0.84h4.5l5.7-1.69z" fill-rule="evenodd" stroke="#000" stroke-width=".25pt" fill="#eeeff6"/>
    <path id="path1320" d="m1002.9 504.51l-4.41-11.94-3.24-9.51-2.23-7.08-3.03-11.73h-23.67l-26.3 2.02-12.14 0.2-11.33 1.22h-20.44l-5.66 0.6-4.25 2.84-1.42 7.28 0.41 7.28 0.61 7.69v5.67l0.2 6.06 1.82 1.83 10.11 0.2 48.36-0.81h25.29s12.95-0.2 13.76-0.2h8.29l9.27-1.62z" stroke="#000" stroke-width=".25pt" fill="none"/>
    <path id="path1321" d="m884.58 476.18l-1.21 5.47-0.2 5.66 0.8 4.65v11.33l-1.21 1.42-7.08-1.01-5.87 0.2h-3.84l-1.42-4.45-0.2-2.63-0.61 8.29 0.61 1.83 7.69 0.4h14.97l-1.82-3.03v-5.06l-0.2-8.1-0.61-4.85 0.2-10.12z" stroke="#000" stroke-width=".25pt" fill="none"/>
    <path id="path1322" d="m913.63 388.43l-6.65 7.67-2.05 4.09h-0.51" stroke="#000" stroke-width=".25pt" fill="none"/>
    <path id="path1323" d="m1001.8 413.16v-16.36l0.2-6.71 4-5.91h-2.6l-3 8.05v21.74l1.4 1.07v-1.88z" stroke="#000" stroke-width=".25pt" fill="none"/>
    <path id="path1324" d="m868.12 433.48l-5.01-7.51-3.33-4.17-2.84-3.67-2.67-1.84-2.17-1.16-0.67 0.33 4.84 4.84-6.67-4.84-2.01-1.33-3.17-1.34-1.83 0.17h-2.67l-1.67 0.5-1.5 1.33-0.67 0.5-1.34 0.34 0.17-1.17 3.01-1.34 3-1.66 3.17-0.84h6.17l4.51-0.67 3.5-0.33 3.51-0.17 1.83 1.34s2.01 1.17 2.84 2.33c0.84 1.17 2.17 3.68 2.84 4.34 0.67 0.67 2.84 4.34 2.84 4.34l-5.85-6.84-3-2.84-1.83 0.17s1.16 2.17 2 2.67c0.83 0.5 3.5 3.84 3.5 3.84l2.67 2.67s1.5 2.17 1.84 3c0.33 0.84 1.5 2.84 1.5 2.84l0.67 1.33-4.68-3.5s-2.5-2.84-2.83-3.5c-0.34-0.67-2-2.34-2.67-3.34s-2.51-3.34-2.51-3.34l-0.16 0.17 1.33 4.34s2.34 2.5 3.01 3.17c0.66 0.66 2.5 3.33 2.5 3.33l0.17 4.51 0.33 3z" fill="#fcc8c8" fill-rule="evenodd"/>
    <path id="path1325" d="m1129.9 456.42l-12.7-2.58-7.9-3.05-8.2-4.21-6.3-6.32-4.3-6.79-6.7-12.18-2.9-7.5-3.2-7.26-3.3-5.38-2.1-3.98-1 0.23 2.4 4.22 4.2 8.9 3.7 8.89 3.6 7.03 2.5 5.85 3.8 5.86 3 5.15 3.8 3.51 4.7 3.28 4.9 2.34 5.4 1.64 3.9 1.41 4.3 0.94 2.8 0.46 2.3 0.47 3.3-0.93z" fill="#bd0000" fill-rule="evenodd"/>
    <path id="path1326" d="m1090.1 396.7l-8.7-0.7-6.8-0.47h-2.8l-1.2 1.17h-0.9v-3.28l-0.9-3.75-1.2-2.81-2.8-2.57-2.1-0.47-4.7-0.94-4.9 0.24-5.4-0.47-2.3-0.94-23.9-9.37-4.5-3.74-5.3-3.53-1.8-1.39 7.1-1.64 5.8-1.57 4.5 3.94 4.5 4.66 3.7 3.27 9.9 3.75s9.1 1.41 10 1.41l10.8 2.81 5.4 2.1 6.1 2.34 5.6 2.58 4.2 1.87 6.1 1.88 1.9 1.87-0.5 1.64-6.1 2.58 1.2-0.47z" fill-rule="evenodd" fill-opacity=".73585" display="block" fill="#fefefe"/>
    <path id="path1327" d="m1329 482.13l-5.3 7.28-6.7 5.3-5.3 2.65-8.6 1.99-6.6 0.66h-23.2l-3.9-0.66-6-2.65-5.3-3.97-1.3-1.99-27.2 3.97h-16.5l-14.6 1.99 31.1-6.62 22.5-2.65 22.6-2.65 14.5-1.99 13.3-0.66h26.5z" stroke="#000" stroke-width=".25pt" fill-rule="evenodd"/>
    <path id="path1328" d="m1176.9 482.83l-4.6-1.61-2.7-0.81-3.3-2.01-2.7-1.34-2.4-1.48-1.4-1.21-1.6-1.34s-1.5-1.34-0.8-1.34h2.7l2.4 2.41 2.7 2.15 2.5 1.61 2 1.35 1.7 1.2 3.2 1.75 2.3 0.67z" fill="#f00" fill-rule="evenodd"/>
    <path id="path1329" d="m1135.6 463.03h1.1l2.2 2.35 3.5 4.08 7 6.58 4.7 4.55 3.6 2.98 3.2 2.04 3.3 2.2 2.6 1.88 3 2.04 3.3 1.88 2.7 1.1 2 0.78 0.3 0.94-0.6 0.47-1.1-0.63-2.3-0.62-9.1-5.33-10.9-7.85-6.5-6.27-5.4-5.17-3.6-3.92-2.5-2.51-1.4-1.73 0.9 0.16z" fill="#f00" fill-rule="evenodd"/>
    <path id="path1330" d="m1331.6 479.49l-27.5 1.68-25.8 2.1-32.8 3.99-43.5 5.25-12.6 0.21-8 0.84-3.5 0.42 0.6 2.31 1.1 1.47 5.2-0.21 9.2-1.47 10.8-1.47 49.9-6.3 22.3-2.73 10.3-0.84 12-0.84 11.5-0.84 4.8-0.84h9.5l4.8-0.42 1.7-2.31z" fill-rule="evenodd" display="block" fill="url(#linearGradient29526)"/>
    <path id="path2576" d="m986.03 379.04c1.99-8.01 3.07-16.78 3.64-25.95-4.24-6.49-14.52-21.6-21.98-23.71-13.78-1.83-23.05 1.87-30.53 5.7l-3.45 8.14-4.29 12.87-2.48 8.75-1.72 9.38-0.28 6.63 28.34 0.79h18.2l14.55-2.6z" fill="url(#linearGradient29526)" fill-rule="evenodd"/>
    <path id="path1869" d="m994.55 320l47.35-3.25 39.6-1.29 25.9 0.64 20.8 0.65 18.2 8.44 15.5 6.49 16.3 7.78 11.6 7.79 9.1 4.54 7.8 5.19h-51.9l-45.4 1.94-40.2 4.54-20.2 1.3h-15.5l-7.2-3.89-9-12.33-22.75-28.54z" fill-rule="evenodd" stroke="#000" stroke-width=".25pt" fill="url(#linearGradient29525)"/>
    <path id="path1270" d="m1217.7 356.98h-12.3l-23.4-15.57-19.4-9.73-20.8-9.09-11-5.84 9.7 2.6 9.6 3.81 24.2 10.76 19.4 8.78 14.9 7.79 9.1 6.49z" stroke="#000" stroke-width=".25pt" fill="none"/>
    <path id="path3116" d="m1203.7 355.77h-10.7c-14.1-12.29-38.7-27.65-69-39.28l3.9 0.5 10.5 4.76 23.5 10.13 17.5 8.17 15.2 9.23 9.1 6.49z" fill-rule="evenodd" stroke="#000" stroke-width=".25pt" fill="#040001"/>
    <path id="path11815" d="m927.4 338.5l-5.8 11.78-3.42 10.93-4.44 13.66-1.7 5.46-23.74-0.34-11.09-0.34 8.36-9.05 9.56-9.22 11.1-8.71 7.68-6.15 5.64-3.92 7.85-4.1z" fill-rule="evenodd" display="block" fill="url(#linearGradient29532)"/>
    <path id="path18648" d="m1081.1 497.47l-3.8-1.09-1.4-0.78-1-1.46-0.5-1.37-0.9-1.26h-5.3l-1.9 0.32s0 1.65 0.4 1.81c0.4 0.15 1.4 0.7 1.8 1.02 0.4 0.31 2.7 1.73 2.7 1.73s2.3 0.66 2.8 0.9 5.2 0.74 7.1 0.18z" fill-opacity=".7283" fill="#fff" fill-rule="evenodd"/>
    <path id="path19891" d="m1340.8 476.03l4.8-2.24 2.5-4.77 2.8-4.21 1.4-5.61 2.3-4.48 1.1-3.93 0.9-1.97 1.9-2.8 0.9-0.84-1.2-0.56-3.3 1.4-3.4 1.4-2.5 3.37-2 4.21-2.8 5.04-1.1 3.09-2 4.21-0.5 2.8-0.6 2.25-0.8 1.68 1.6 1.96z" stroke="#000" stroke-width=".25pt" fill-rule="evenodd"/>
    <path id="path1267" d="m1177 497.09l-33.2 4.14-31.6 0.77-17.6-0.77-10.8-3.08-7.7-2.3-2.3-3.85v-40.75l8.4 7.69 9.3 2.3 11.5 1.54 10.8 0.77 10.7 0.77 10.2-1.38 7.5 8 9.1 9.2 8.9 7.09 7.9 5.1 8.9 4.76z" fill="url(#linearGradient29527)" fill-rule="evenodd"/>
    <path id="path22999" d="m957.97 322.72c-2.53 0.17-5.02 0.6-7.44 1.44-4.29 0.84-7.34 1.96-14.19 3.9l-5.37 2.44-15.03 8-10.82 7.81-13.53 11.72-15.34 15.35-8.13 8.71 4.54-0.59 15.03-15.34 18.03-16.54 12.62-8.71 7.85-4.22 2.09-0.31c-6.81 13.83-11.85 29.28-15.66 43.71l7.54 0.19c2.46-15.5 7.02-30.33 13.46-46.37 4.28-1.58 9.7-3.91 13.57-5.03 7.76-1.58 12.05-2.16 18.5-1.6 2.79 1.1 6.13 1.28 8.15 3.78 4.74 4.35 8.76 9.41 12.82 14.38 1.62 2.33 3.31 4.71 4.18 7.44 0.64 2.56-0.44 5.11-0.56 7.68-0.78 5.88-1.26 11.85-2.66 17.63 1.26 1.59 4.75 0.01 6.88 0.47 3.43-0.08 6.9-0.17 10.3-0.25 1.7-2.88 0.8-6.36 0.3-9.44-0.8-3.03-1.7-6.01-2.6-9-6.09-8.54-18.95-30.27-27.75-34.16-2.9-1.42-5.76-3.38-9.16-3.06-2.52-0.12-5.09-0.2-7.62-0.03z" fill-rule="evenodd" stroke="#000" stroke-width=".25pt" fill="url(#linearGradient29534)"/>
    <path id="path1288" d="m996.51 367.97l-11.41 1.27-5.07-0.64-2.86-2.53-3.48-1.59c-2.26-0.85-6.91-1.44-12.16-0.58-2.34 0.51-4 1.28-5.28 2.17-2.86 1.69-4.02 3.43-4.59 5.07-0.45 0.9-0.57 2.11-0.69 2.85-0.17 3.5 2.27 5.35 3.7 6.02l2.85 1.59 4.12 0.32h5.39l3.49-0.64 3.8-1.58 2.85-1.91 2.22-2.21 2.22-3.17h9.2l3.48-0.32 0.64 1.58 1.26 1.27 1.59-0.95 0.95-3.49-2.22-2.53z" stroke="#000" stroke-width=".25pt" fill-rule="evenodd"/>
    <path id="path1289" d="m951.23 373.28c1.23-0.12 2.49-0.28 3.59-0.91 1.26-0.04 1.72-1.11 2.06-2.15 0.45-1.39 2.01-1.48 3.22-1.75 1.47-0.05 2.94-0.09 4.41-0.12 1.17 0.17 2.26 0.76 3.28 1.32 1.19 0.71 0.74 2.61 2.06 3.08 1.49 0.54 1.82-1.19 2.77-1.76 1.04-0.3 1.87 0.83 2.95 0.65 1.77-0.04 0.56-1.76 0.68-2.68 0.55-0.99 2.73 0.26 2.5-1.24-0.61-0.89-1.77-1.15-2.66-1.68-2.17-1.07-4.5-1.94-6.95-2-2.7-0.2-5.46-0.31-8.12 0.27-3.9 1.07-7.73 3.43-9.4 7.25-0.13 0.58-0.26 1.15-0.39 1.72z" fill="#c3c4cf" fill-rule="evenodd"/>
    <path id="path23630" d="m862.04 383.5z" stroke="#000" stroke-width=".25pt" fill="none"/>
    <path id="path23631" d="m879.52 367.32l18.44-17.79 8.41-6.15 12.3-8.09 9.06-4.86 12.3-4.85c4.2-1.08 8.41-2.16 12.62-3.24 2.59-0.32 5.17-0.64 7.76-0.97l8.74 0.33 4.85 0.64 4.21 1.95 4.53 4.2 6.15 6.8 4.21 6.15 5.17 7.44 4.53 6.79 2.9 4.53 2.6 3.24 15.5-3.9-31.96-40.54 93.46-5.07 17.2 0.97 6.8-0.97-5.5-1.62-61.5-0.64-37.6 0.32-23.49 1.86c-6.2 0.29-11.57 0.98-18.38 2.5-8.07 0.69-17.77 4.45-26.04 7.8l-20.89 10.6-16.47 10.46-16.35 14.02-8.74 10.04-10.68 11.32-1.62 3.88 17.48-17.15z" fill="#fcc8c8" fill-rule="evenodd"/>
    <path id="path1282" d="m1007.9 365.06l11.5-2.74-16.4-23.05-5.53-8.23-6.03-7.68-3.08-3.41" stroke="#000" stroke-width=".25pt" fill="none"/>
    <path id="path24883" d="m1348.8 438.91l-6.3 1.53-16 2.74-22.5 2.92-2.2 0.33 0.2-0.82 21.2-2.75 10.7-2.05 11.1-1.93 2.5-0.48 1.3 0.51z" fill-rule="evenodd" display="block" fill="#bd0000"/>
    <path id="path24255" d="m1141.5 362.22l-38.6 3.19s-17 2.87-18.2 2.87-10.1 0.7-11 0.94c-1 0.24-8.7 0.72-8.7 0.72s-7 1.27-6.8 2.47c0.3 1.2 8.8 3 13.6 3.21l2.4 0.88 14.4 3 16.8 1.28 57.9 0.44h47l58.1 3.59 24.4 3.6 2.9 3.12 2.4 3.13 1.2 2.06-0.2-2.75-1.3-2.56-3.3-4.22-4.7-3.41-3.9-2.4 2.5 0.68 1.7 1.16 3.4 2.4 3 2.26 2.4 2.96 2.4 3.69c0.6 1.5 0.9 2.9 1 4.28l2.5 0.16 0.7-2.66v-5.5l1.5-1.43 1.9-2.88 6-2.16-1.7-1.22-6.5-1.43-13.9-3.81-18.2-4.1-20.6-1.44s-23.3-1.68-24.5-1.68-44.1-2.38-44.1-2.38l-56.8 0.94 8.4-1.44 14.3-1.66 20.7-1.43-40.6 0.47 9.9-0.97 0.2-0.03v-1.94z" fill-opacity=".73585" fill="#fefefe" fill-rule="evenodd"/>
    <path id="path26752" d="m1284.6 381.32l5.4 2.82 4.7 3.4 3.3 4.24 1.2 2.55 0.3 2.97-0.1 2.48-2 8.28 4.7-0.59c0.4-4.34 1.3-8.07-0.6-12.57l-2.4-3.68-2.4-2.97-3-2.27-3.4-2.4-4.2-2.37-1.5 0.11z" fill="#d00000" fill-rule="evenodd"/>
    <path id="path26754" d="m870.62 417.76c4.11 3.46 9.11 6.16 11.57 11.18 3.82 5.8 8.28 11.16 11.96 17.04 3.12 3.2 6.23 6.39 6.95 10.96 1.51 3.83 6.21 4.38 8.63 7.2-1.92 2.16-6.85-0.16-9.93 0.4-4.42-1.12-7.1-5.26-10.84-7.6-3.75-4-5.61-9.33-8.51-13.93-3.86-7.42-8.41-14.85-9.44-23.31-0.12-0.65-0.25-1.29-0.39-1.94z" fill="#ff2e25" fill-rule="evenodd"/>
    <path id="path28654" d="m1170.9 491.5c0.9-4.51 3.2-5.79 0.1-8.63-6.5-5.7-15.4-13.86-21.6-19.91l-10.4 0.18c2.5 2.92 10 11.55 12.9 14.3 3.1 3.39 15.2 11.51 19 14.06z" stroke="#000" stroke-width=".25pt" fill-rule="evenodd"/>
    <path id="path28658" d="m1219 455.98l-54 5.17-17.5 0.97-11.7 0.65-26.8-2.26-8.7-0.98-10.7-2.58-9.7-6.15-3.9-4.53-10-16.81-7.8-14.88s-7.7-11.32-8.4-12.61c-0.6-1.3-4.5-5.83-4.5-5.83l-2.9-3.55-0.7-2.59 1.3-2.91 0.7-0.65 14.5 1.3 4.2-1.3 4.2 0.97 1.7 4.85 5.8 11.65 6.1 13.58 4.9 10.67 7.7 13.26 6.2 6.8 7.7 3.88 9.1 3.23 8.7 1.62 4.9 0.97 6.4 1.29 9.8 1.3 15.5-1.62 14.5-0.97 13.9-0.65 11-1.29 9.1-0.97h5.5l4.2-0.33-0.3 1.3z" fill-rule="evenodd" stroke="#ff2e25" stroke-width=".25pt" fill="#ff2e25"/>
    <path id="path21755" d="m1110.2 461.1c-5.4-0.46-10.9-0.39-16.3-1.2-3.9-1.53-8.6-1.63-11.5-4.92-3-2.77-6.5-5.2-8.4-8.97-3.8-5.74-7.3-11.72-10.2-17.98-3-5.94-5.9-12.02-9.3-17.72-3.1-4.36-6.2-8.66-10.1-12.26-2.7-2.9-6.5-4.18-9.9-6.06-3.4-1.92-7.1-1.28-10.7-0.74-3.9 0.23-6.9 3-10.3 4.66 2.3-2.14 8.1-5.11 8.2-6.71-5.1-0.65-10.2-0.81-15.3-1.3 0.8-4.97 6.9-2.28 10.4-3.22 13.7-0.59 27.4-0.05 41.1-0.09 1.8-0.34 5.4 0.07 4.7 2.33-5.2 0.99-10.4-0.02-15.6-0.03-3.3-1.13-4.6 1.07-5.3 4.07 2.2 4.06 4.6 8.02 7.8 11.34 2.9 3.23 5.7 6.54 7.3 10.64 3.5 7.54 8 14.57 12.2 21.69 3.7 6.24 7.1 12.93 13 17.42 3.8 3.22 8.2 5.92 13.2 6.54 5 1.03 10 1.59 15 2.51z" fill-rule="evenodd" display="block" fill="url(#linearGradient29535)"/>
    <path id="path28668" d="m1040.5 421.25l-3.2 4.41-0.6 3.23v3.23l0.3 4.41 2.3 5.59 2.1-5.29 3.5-4.71 2.6-4.99-3.5-3.53-3.5-2.35z" fill-rule="evenodd" stroke="#000" stroke-width=".25pt" display="block"/>
    <path id="path28669" d="m1051.1 439.47l-3.9 5.59 5.6-0.88-0.6-2.36-1.1-2.35z" fill-rule="evenodd" stroke="#000" stroke-width=".25pt" display="block"/>
    <path id="path28670" d="m1054 452.41l-2.9 0.29-2.4 2.06-1.2 2.06 0.3 2.05 1.8 1.47v2.36l0.3 2.64-1.2 2.35-1.2 1.47 0.3 2.65 1.8 1.47 2.6 0.29h1.8l0.6-2.94v-1.76l-2.1-1.18-0.3-1.76-0.5-4.7 0.5-2.36 1.8-1.17v-3.53l-1.8-1.47 1.8-0.29z" fill-rule="evenodd" stroke="#000" stroke-width=".25pt" display="block"/>
    <path id="path28671" d="m1054 481.21l-4.7-0.29-4.1 0.59-0.3 0.29 0.6 1.18 2.6 3.23 1.8 3.23 0.6 0.3 0.9-3.53 0.6-2.64 2-2.36z" fill-rule="evenodd" stroke="#000" stroke-width=".25pt" display="block"/>
    <path id="path28672" d="m1047.2 499.73l-2.3-4.41-2.4-2.64-1.1-2.35-1.5-2.36-1.5 4.41-1.1 4.12 0.5 3.53 1.5 2.35 2.4 2.64 2.9-1.17 1.8-1.77 0.8-2.35z" fill-rule="evenodd" stroke="#000" stroke-width=".25pt" display="block"/>
    <path id="path28673" d="m1024 499.44l0.3-4.12v-2.94l1.2-2.64 1.8-2.35 0.8-2.35 1.2-1.47 2.4-3.24-6.2 4.41-3.5 2.65-1.8 2.05-0.3 3.24v2.06l4.1 4.7z" fill-rule="evenodd" stroke="#000" stroke-width=".25pt" display="block"/>
    <path id="path28674" d="m1012 457.58l-0.6 7.94v4.12l0.3 2.64 2.6-1.47v-5.58l0.3-4.71v-2.35l-2.6-0.59z" fill-rule="evenodd" stroke="#000" stroke-width=".25pt" display="block"/>
    <path id="path28675" d="m1017.6 458.87v6.18l-0.6 5.29 4.7-2.06 2.9-1.47 0.3-4.41-7.3-3.53z" fill-rule="evenodd" stroke="#000" stroke-width=".25pt" display="block" fill="#ff2e25"/>
    <path id="path28676" d="m1023.1 430.95l-3.8 4.7 0.3 5 3.2 3.23 3.9 1.47 2.9 0.59-4.1-5-0.6-3.23-1.8-6.76z" fill-rule="evenodd" stroke="#000" stroke-width=".25pt" display="block"/>
    <path id="path28679" d="m1035.7 513.93l-1.4-5.08-1.1-3.38-1.1-3.39-0.9-3.1v-4.8l0.6-3.1 1.4-3.67 0.5-2.26 2-1.97 2.8-2.26 1.2 0.85-2.9 2.25-3.1 7.06-1.9 5.92 0.8 2.82 1.1 3.95 1.5 2.82 1.1 2.54 1.7 0.85 2-1.97 1.6-1.42 0.9 0.57 1.4-1.41 2.8-2.82 0.9-1.13-1.4 2.26-2.9 3.1-0.8 1.69-2 1.13-2.2 1.69-2.6 2.26z" fill-rule="evenodd" stroke="#000" stroke-width=".25pt" display="block"/>
    <path id="path28680" d="m1042.2 481.77l0.9 4.51 3.1 5.08 2.5 3.95 0.6 2.26 1.7-3.11 2.8-8.18-3.1 5.64h-1.4l-2.3-3.67-2.5-3.1-2.3-3.38z" fill-rule="evenodd" stroke="#000" stroke-width=".25pt" display="block"/>
    <path id="path28681" d="m1017.1 485.72l4.5-3.39 2-0.85 2.8-0.84 2.3-1.13 0.8-0.85-0.8-0.56-4 1.41-3.4 1.69-1.7 1.69-2.5 2.83z" fill-rule="evenodd" stroke="#000" stroke-width=".25pt" display="block"/>
    <path id="path28682" d="m1030.1 451.29l-1.4 1.7-3.1-1.7-5.7-3.66-3.6-3.11-2-2.26-1.2-3.38-0.8-4.8-0.8-3.1 0.2-1.13h2.3l2 2.54 1.7 0.85h2.8l-1.7 1.41-2.8-1.13-2-0.85v3.39l0.6 4.79 1.7 2.54s1.6 1.7 2.8 2.26c1.1 0.56 3.6 1.69 3.6 1.69l3.1 1.41 2.3 1.7 2 0.84z" fill-rule="evenodd" stroke="#000" stroke-width=".25pt" display="block"/>
    <path id="path28683" d="m1036.6 416.31l-1.4 5.36-1.7 4.23-1.4 3.95-0.3 3.39 0.3 4.51 2.2 2.82 2 2.82 1.7 3.39 0.5 1.69h-1.1l-1.7-3.95-2-2.82-2.5-3.39-0.6-5.07-0.2-2.26v-2.82l0.8-2.54 1.7-3.67 1.1-2.26 0.9-2.25 1.7-1.13z" fill-rule="evenodd" stroke="#000" stroke-width=".25pt" display="block"/>
    <path id="path28684" d="m1029.5 426.75l-1.1 3.38-1.4 1.13-1.2-1.69v-6.77l-0.8-3.95 0.3-2.54 0.3-1.13 2.5 2.26 2 3.1-0.3 0.56-2.5-1.69-0.3 2.54v3.67l-0.3 2.25 0.6 1.42 2.2-2.54z" fill-rule="evenodd" stroke="#000" stroke-width=".25pt" display="block"/>
    <path id="path29310" d="m857.98 454.89l-2.28 3.93 3.34-0.62-0.35-1.66-0.71-1.65z" fill-rule="evenodd" stroke="#000" stroke-width=".16192pt" fill="#eeeff6"/>
    <path id="path29311" d="m859.74 463.98l-1.76 0.21-1.4 1.45-0.7 1.44 0.18 1.45 1.05 1.03v1.66l0.17 1.86-0.7 1.65-0.7 1.03 0.18 1.86 1.05 1.04 1.58 0.2h1.05l0.35-2.06v-1.24l-1.23-0.83-0.17-1.24-0.36-3.31 0.36-1.65 1.05-0.83v-2.48l-1.05-1.03 1.05-0.21z" fill-rule="evenodd" stroke="#000" stroke-width=".16192pt" fill="#eeeff6"/>
    <path id="path29312" d="m850.17 508.24l3.37-3.97 3.87-6.35 2.53-10.12 0.84-8.13v-6.95l-0.51-8.33-1.34-10.32-2.02-9.32-2.53-4.17-3.37-3.77-4.37-0.79-3.71-0.2-4.54 3.77-3.37 5.95-1.85 4.96-1.68 7.94-1.01 7.14v7.14l0.67 11.91 0.84 6.15 2.02 6.94 2.86 6.15 3.2 3.17 1.52 1.79 2.52 0.6h2.7l3.36-1.19z" fill-rule="evenodd" stroke="#000" stroke-width=".16192pt" fill="#eeeff6"/>
    <path id="path29313" d="m851.67 442.07l-1.93 3.1-0.35 2.28v2.27l0.18 3.1 1.4 3.93 1.23-3.72 2.1-3.31 1.58-3.51-2.1-2.48-2.11-1.66z" fill-rule="evenodd" stroke="#000" stroke-width=".16192pt" display="block"/>
    <path id="path29314" d="m857.98 454.89l-2.28 3.93 3.34-0.62-0.35-1.66-0.71-1.65z" fill-rule="evenodd" stroke="#000" stroke-width=".16192pt" display="block"/>
    <path id="path29315" d="m859.74 463.98l-1.76 0.21-1.4 1.45-0.7 1.44 0.18 1.45 1.05 1.03v1.66l0.17 1.86-0.7 1.65-0.7 1.03 0.18 1.86 1.05 1.04 1.58 0.2h1.05l0.35-2.06v-1.24l-1.23-0.83-0.17-1.24-0.36-3.31 0.36-1.65 1.05-0.83v-2.48l-1.05-1.03 1.05-0.21z" fill-rule="evenodd" stroke="#000" stroke-width=".16192pt" display="block"/>
    <path id="path29316" d="m859.74 484.24l-2.81-0.21-2.45 0.42-0.18 0.2 0.35 0.83 1.58 2.27 1.05 2.28 0.35 0.2 0.53-2.48 0.35-1.86 1.23-1.65z" fill-rule="evenodd" stroke="#000" stroke-width=".16192pt" display="block"/>
    <path id="path29317" d="m855.7 497.26l-1.4-3.1-1.4-1.86-0.7-1.65-0.88-1.66-0.88 3.1-0.7 2.9 0.35 2.48 0.88 1.65 1.4 1.86 1.76-0.83 1.05-1.24 0.52-1.65z" fill-rule="evenodd" stroke="#000" stroke-width=".16192pt" display="block"/>
    <path id="path29318" d="m841.85 497.05l0.18-2.89v-2.07l0.7-1.86 1.05-1.65 0.53-1.65 0.7-1.04 1.4-2.27-3.68 3.1-2.11 1.86-1.05 1.45-0.18 2.27v1.45l2.46 3.3z" fill-rule="evenodd" stroke="#000" stroke-width=".16192pt" display="block"/>
    <path id="path29319" d="m836.06 467.5l-0.35 5.58v2.89l0.18 1.86 1.58-1.03v-3.93l0.17-3.31v-1.65l-1.58-0.41z" fill-rule="evenodd" stroke="#000" stroke-width=".16192pt" display="block"/>
    <path id="path29320" d="m837.99 468.53v4.34l-0.35 3.72 2.81-1.45 1.75-1.03 0.18-3.1-4.39-2.48z" fill-rule="evenodd" stroke="#000" stroke-width=".16192pt" display="block"/>
    <path id="path29321" d="m841.32 448.89l-2.28 3.31 0.18 3.52 1.93 2.27 2.28 1.03 1.75 0.42-2.45-3.52-0.35-2.27-1.06-4.76z" fill-rule="evenodd" stroke="#000" stroke-width=".16192pt" display="block"/>
    <path id="path29322" d="m848.83 507.24l-0.85-3.57-0.67-2.38-0.67-2.38-0.51-2.18v-3.37l0.34-2.19 0.84-2.58 0.34-1.58 1.18-1.39 1.68-1.59 0.67 0.6-1.68 1.58-1.85 4.96-1.18 4.17 0.5 1.98 0.68 2.78 0.84 1.98 0.67 1.79 1.01 0.6 1.18-1.39 1.01-1 0.51 0.4 0.84-0.99 1.68-1.98 0.51-0.8-0.85 1.59-1.68 2.18-0.5 1.19-1.18 0.8-1.35 1.19-1.51 1.58z" fill-rule="evenodd" stroke="#000" stroke-width=".16192pt" display="block"/>
    <path id="path29323" d="m852.7 484.63l0.5 3.17 1.85 3.57 1.52 2.78 0.34 1.59 1.01-2.19 1.68-5.75-1.85 3.97h-0.84l-1.35-2.58-1.52-2.18-1.34-2.38z" fill-rule="evenodd" stroke="#000" stroke-width=".16192pt" display="block"/>
    <path id="path29324" d="m837.72 487.4l2.69-2.38 1.18-0.59 1.68-0.6 1.35-0.79 0.5-0.6-0.5-0.39-2.36 0.99-2.02 1.19-1.01 1.19-1.51 1.98z" fill-rule="evenodd" stroke="#000" stroke-width=".16192pt" display="block"/>
    <path id="path29325" d="m845.46 463.2l-0.84 1.19-1.85-1.19-3.37-2.58-2.19-2.18-1.18-1.59-0.67-2.38-0.51-3.37-0.5-2.18 0.17-0.8h1.34l1.18 1.79 1.01 0.59h1.69l-1.01 0.99-1.69-0.79-1.18-0.59v2.38l0.34 3.37 1.01 1.79s1.01 1.19 1.68 1.58c0.68 0.4 2.19 1.19 2.19 1.19l1.85 0.99 1.35 1.19 1.18 0.6z" fill-rule="evenodd" stroke="#000" stroke-width=".16192pt" display="block"/>
    <path id="path29326" d="m849.33 438.6l-0.84 3.77-1.01 2.97-0.84 2.78-0.17 2.38 0.17 3.18 1.34 1.98 1.18 1.99 1.01 2.38 0.34 1.19h-0.67l-1.01-2.78-1.18-1.99-1.52-2.38-0.33-3.57-0.17-1.58v-1.99l0.5-1.78 1.01-2.58 0.68-1.59 0.5-1.59 1.01-0.79z" fill-rule="evenodd" stroke="#000" stroke-width=".16192pt" display="block"/>
    <path id="path29327" d="m845.12 445.94l-0.67 2.38-0.84 0.79-0.68-1.19v-4.76l-0.5-2.77 0.17-1.79 0.17-0.79 1.51 1.58 1.18 2.19-0.17 0.39-1.51-1.19-0.17 1.79v2.58l-0.17 1.58 0.34 1 1.34-1.79z" fill-rule="evenodd" stroke="#000" stroke-width=".16192pt" display="block"/>
    <path id="path29328" d="m1332.1 478.39l3.8-0.25 2-1.25 1.7-1-0.7-1.99v-1.99l1.7-4.49v-2.49l-4-0.5-3.5 3.99-18.7 2.99-32.4 2.74-50.3 5.23-36.9 3.24-13.7 0.75-4.7-1h-2.8l-1 1.75 0.3 2.99-1.5 3.74s-0.3 1.74 0.7 1.74 3.5 1 3.5 1h2.8l16.7-1h4.7l4.5-0.25 6.5-0.74 50.6-6.48 20.4-2.25 23.9-1.99 17.5-0.75 8.9-1.74z" fill-rule="evenodd" display="block" fill="url(#linearGradient29527)"/>
    <rect id="rect29333" fill-rule="evenodd" rx="7.622" ry="4.0771" transform="rotate(-89.112)" width="15.244" display="block" y="1036.6" x="-458.28" height="10.309" fill="url(#linearGradient29537)"/>
    <path id="path29335" d="m1034.9 465.9a1.3893 5.0014 0 1 1 -2.8 0 1.3893 5.0014 0 1 1 2.8 0z" fill-rule="evenodd" transform="matrix(2.0851 0 0 1.3832 -1122.4 -177.78)" display="block" stroke="#000" stroke-width=".25pt" fill="url(#linearGradient29527)"/>
    <rect id="rect29337" fill-rule="evenodd" rx="5.273" ry="2.8206" transform="rotate(-89.112)" width="10.546" display="block" y="853.47" x="-465.15" height="7.1318" fill="url(#linearGradient29539)"/>
    <path id="path29338" d="m1034.9 465.9a1.3893 5.0014 0 1 1 -2.8 0 1.3893 5.0014 0 1 1 2.8 0z" fill-rule="evenodd" transform="matrix(1.4425 0 0 .9569 -642.42 27.193)" display="block" stroke="#000" stroke-width=".25pt" fill="url(#linearGradient29527)"/>
  </g>
  <metadata>
    <rdf:RDF>
      <cc:Work>
        <dc:format>image/svg+xml</dc:format>
        <dc:type rdf:resource="http://purl.org/dc/dcmitype/StillImage"/>
        <cc:license rdf:resource="http://creativecommons.org/licenses/publicdomain/"/>
        <dc:publisher>
          <cc:Agent rdf:about="http://openclipart.org/">
            <dc:title>Openclipart</dc:title>
          </cc:Agent>
        </dc:publisher>
        <dc:title>sports car</dc:title>
        <dc:date>2009-06-03T05:16:18</dc:date>
        <dc:description>from the old OCAL site</dc:description>
        <dc:source>http://openclipart.org/detail/26433/sports-car-by-anonymous</dc:source>
        <dc:creator>
          <cc:Agent>
            <dc:title>Anonymous</dc:title>
          </cc:Agent>
        </dc:creator>
        <dc:subject>
          <rdf:Bag>
            <rdf:li>car</rdf:li>
            <rdf:li>clip art</rdf:li>
            <rdf:li>clipart</rdf:li>
            <rdf:li>image</rdf:li>
            <rdf:li>media</rdf:li>
            <rdf:li>public domain</rdf:li>
            <rdf:li>racing</rdf:li>
            <rdf:li>sports2010</rdf:li>
            <rdf:li>svg</rdf:li>
            <rdf:li>transportation</rdf:li>
            <rdf:li>vehicle</rdf:li>
          </rdf:Bag>
        </dc:subject>
      </cc:Work>
      <cc:License rdf:about="http://creativecommons.org/licenses/publicdomain/">
        <cc:permits rdf:resource="http://creativecommons.org/ns#Reproduction"/>
        <cc:permits rdf:resource="http://creativecommons.org/ns#Distribution"/>
        <cc:permits rdf:resource="http://creativecommons.org/ns#DerivativeWorks"/>
      </cc:License>
    </rdf:RDF>
  </metadata>
</svg>
