<?xml version="1.0" encoding="UTF-8" standalone="no"?>
<svg id="svg4136" xmlns:rdf="http://www.w3.org/1999/02/22-rdf-syntax-ns#" xmlns="http://www.w3.org/2000/svg" height="984" viewBox="0 0 2816 984" width="2816" version="1.1" xmlns:cc="http://creativecommons.org/ns#" xmlns:dc="http://purl.org/dc/elements/1.1/">
<path id="path4190" d="m2118.3 0.37891c-1.8565 0.024708-3.4931 0.079337-4.832 0.16797l-10.053 0.66602-16.869 31.643c-136.3 255.47-226.5 400.97-259.6 418.26-17.377 9.0887-162.13-2.413-316.5-25.148-180.16-26.534-384.58-48.121-431-45.512-94.283 5.3002-182.53 61.778-265.85 170.14l-7.6113 9.9004-14.272 4.8945c-231.59 79.436-347.28 153.28-347.99 222.12-0.1474 14.226 24.016 53.506 37.217 60.5l2.4961 1.3223-2.6035-3.418c-18.124-23.781-6.5682-64.161 24.772-86.561 55.335-39.549 182.52-3.0436 201.86 57.939 18.207 57.406-14.533 86.994-99.951 90.328l-17.791 0.69531 3.8594 2.3848c67.701 41.837 193.93 68.262 345.36 72.301 132.05 3.5218 233.3-13.287 377.5-62.668 15.4-5.2738 29.35-9.7796 31-10.014 5.8548-0.83054 1164.3 43.785 1305.4 50.277 43.053 1.9802 46.242 1.474 67.228-10.66 28.946-16.736 101.07-77.783 93.726-79.332-1.3212-0.27877-235.28-18.545-519.9-40.592s-520.34-40.358-523.8-40.693l-6.3066-0.60938 27.807-14.189c56.431-28.795 100.52-55.155 124.8-74.621 28.797-23.081 122.42-104.3 156.29-135.59l6.291-5.8106 18.602-68c10.231-37.4 18.919-68.358 19.307-68.797 0.3874-0.43873 37.336 0.56427 82.108 2.2305 201.75 7.5081 319.02 11.05 366.31 11.061l26.912 0.006 7.5879-4.4727c10.108-5.9579 18.426-12.634 22.18-17.801l3.0723-4.2266-2.3321-0.35742c-1.2824-0.19667-109.97-11.236-241.53-24.531-131.56-13.296-239.51-24.49-239.9-24.877-0.3865-0.38652 15.79-77.129 35.947-170.54 20.3-93.415 36.8-170.27 36.8-170.79 0-0.967-41.2-12.621-51-14.433-7.9-1.4705-31.7-2.771-44.7-2.5981zm-607.8 320.93l-11 2.8926c-31.877 8.3812-43.28 13.576-38.918 17.73 3.6961 3.5198 207.48 29.92 366.42 47.469 11.825 1.3057 23.543 2.4235 26.039 2.4844l4.539 0.11133 17.215-24.25 17.213-24.25-5.252-0.30664c-2.8-0.15-88.7-5.15-190.7-11.08l-185.5-10.79zm-1304 85.348-29 1.7305c-116.03 6.93-177.5 17.9-177.5 31.67 0 5.1938 5.3225 8.4924 82.5 51.131 125.33 69.241 261.38 145.48 347 194.44 46.111 26.369 37.872 24.869 56 10.193 35.634-28.848 67.212-50.914 84.5-59.049 33.597-15.809 79.626-35.47 108.5-46.344 12.419-4.6767 13.718-5.3784 11.5-6.2207-1.375-0.52226-110.72-40.685-243-89.25l-240.5-88.3zm827.3 21.561c33.144 0.18325 72.047 4.7024 111.66 13.336 27.089 5.904 86.539 22.26 92.586 25.473 1.3608 0.72297 0.1437 11.768-10.213 92.646-6.4671 50.503-11.775 92.162-11.795 92.574-0.062 1.2542-1.0793 0.88153-14.207-5.2031-66.115-30.644-142.12-56.612-198.87-67.945-18.247-3.644-110.61-13.795-147.71-16.232-10.038-0.65958-18.246-1.4614-18.236-1.7832 0.007-0.32177 6.2336-8.3575 13.838-17.855 51.593-64.442 93.651-101.3 124.62-109.22 15.669-4.0074 35.649-5.9125 58.326-5.7871zm272.1 45.938c7.5694 0.33385 119.49 14.892 120.22 15.68 1.0455 1.123 33.272 139.11 32.637 139.74-0.3284 0.3284-21.894 3.7028-47.924 7.498s-47.78 6.9042-48.332 6.9102c-1.0506 0.0113-57.789-169.03-57-169.82 0.02-0.0198 0.1562-0.0225 0.4004-0.0117zm-35.906 3.8516c0.4235 0.009 48.51 174.32 48.51 175.85 0 0.27075-14.625 2.8791-32.5 5.7969-39.578 6.4605-35.398 6.39-34.738 0.59375 0.2973-2.6125 4.518-44.688 9.3789-93.5s9.0688-88.746 9.3496-88.74z"/>
<path id="path4182" d="m522 897.28c-35.424-4.0441-47.053-28.363-32.029-66.979 24.145-62.064 152.67-59.638 169.46 3.199 9.7932 36.665-6.5818 53.17-60.428 60.908-20.157 2.8965-62.842 4.4888-77 2.8725z"/>
</svg>
